<svg width="1476" height="744" viewBox="0 0 1476 744" fill="none" xmlns="http://www.w3.org/2000/svg">
<path d="M1059.96 0C1289.43 7.66502e-05 1475.46 221.619 1475.46 495C1475.46 768.381 1289.43 990 1059.96 990H415.503C186.027 990 0 768.381 0 495C0 221.619 186.027 0 415.503 0C545.492 2.11418e-05 661.54 71.1132 737.729 182.465C813.919 71.1132 929.968 0 1059.96 0Z" fill="url(#paint0_radial_239_48)"/>
<mask id="mask0_239_48" style="mask-type:alpha" maskUnits="userSpaceOnUse" x="436" y="287" width="213" height="171">
<path d="M542.309 287.395C600.865 287.395 648.335 334.864 648.335 393.421C648.335 417.439 640.347 439.59 626.885 457.367C601.554 446.846 571.462 440.748 539.182 440.748C508.927 440.748 480.595 446.104 456.304 455.438C443.707 438 436.281 416.578 436.281 393.421C436.281 334.864 483.752 287.395 542.309 287.395Z" fill="white"/>
</mask>
<g mask="url(#mask0_239_48)">
<circle cx="542.277" cy="393.422" r="106.027" fill="white"/>
<path d="M471.698 353.568C481.667 336.301 497.693 323.353 516.668 317.233C535.643 311.114 556.215 312.26 574.393 320.449C592.571 328.638 607.06 343.286 615.05 361.553C623.039 379.819 623.96 400.402 617.633 419.309C611.306 438.216 598.183 454.1 580.808 463.879C563.434 473.658 543.046 476.636 523.601 472.235C504.155 467.834 487.037 456.368 475.566 440.06C464.096 423.753 459.091 403.766 461.522 383.977L541.356 393.785L471.698 353.568Z" fill="#131313"/>
</g>
<mask id="mask1_239_48" style="mask-type:alpha" maskUnits="userSpaceOnUse" x="824" y="287" width="213" height="171">
<path d="M930.276 287.395C988.833 287.395 1036.3 334.864 1036.3 393.421C1036.3 417.439 1028.32 439.591 1014.85 457.368C989.523 446.847 959.431 440.748 927.15 440.748C896.896 440.748 868.564 446.104 844.272 455.438C831.675 437.999 824.25 416.578 824.25 393.421C824.25 334.864 871.719 287.395 930.276 287.395Z" fill="white"/>
</mask>
<g mask="url(#mask1_239_48)">
<circle cx="930.246" cy="393.422" r="106.027" fill="white"/>
<path d="M859.667 353.568C869.635 336.301 885.661 323.353 904.637 317.233C923.612 311.114 944.183 312.26 962.362 320.449C980.54 328.638 995.029 343.286 1003.02 361.553C1011.01 379.819 1011.93 400.402 1005.6 419.309C999.275 438.216 986.151 454.1 968.777 463.879C951.402 473.658 931.015 476.636 911.569 472.235C892.124 467.834 875.005 456.368 863.535 440.06C852.065 423.753 847.06 403.766 849.491 383.977L929.325 393.785L859.667 353.568Z" fill="#131313"/>
</g>
<path d="M588.297 535.137C588.297 535.137 678.508 579.485 739.702 578.38C800.895 577.275 883.241 535.137 883.241 535.137" stroke="#25130D" stroke-width="23.5956" stroke-linecap="round"/>
<defs>
<radialGradient id="paint0_radial_239_48" cx="0" cy="0" r="1" gradientUnits="userSpaceOnUse" gradientTransform="translate(737.73 495) rotate(90) scale(495 737.73)">
<stop stop-color="#00A6F6"/>
<stop offset="1" stop-color="#92DBF3"/>
</radialGradient>
</defs>
</svg>
