<svg preserveAspectRatio="none" width="100%" height="100%" overflow="visible" style="display: block;" viewBox="0 0 24.56 24.56" fill="none" xmlns="http://www.w3.org/2000/svg">
<g id="Frame" clip-path="url(#clip0_0_33)">
<path id="Vector" d="M12.3024 2.87813C12.5152 2.05374 12.9962 1.32356 13.6696 0.802511C14.3429 0.281464 15.1704 -0.000852916 16.0219 1.93564e-06H16.1178C16.3214 1.93564e-06 16.5166 0.0808633 16.6605 0.224797C16.8044 0.368732 16.8853 0.563948 16.8853 0.767502C16.8853 0.971055 16.8044 1.16627 16.6605 1.31021C16.5166 1.45414 16.3214 1.535 16.1178 1.535H16.0219C15.5114 1.53496 15.0153 1.70456 14.6118 2.01715C14.2082 2.32975 13.9199 2.7676 13.7923 3.26188C13.7414 3.45907 13.6142 3.62797 13.4388 3.73142C13.2634 3.83488 13.0541 3.86441 12.8569 3.81352C12.6597 3.76263 12.4908 3.63549 12.3873 3.46007C12.2839 3.28465 12.2544 3.07532 12.3052 2.87813H12.3024ZM21.4231 16.27C21.3656 16.1385 21.2726 16.0256 21.1545 15.9439C19.5265 14.8252 19.1878 12.917 19.1878 11.5125C19.1878 9.81729 20.4801 8.34081 21.2505 7.61072C21.3262 7.539 21.3866 7.45258 21.4278 7.35674C21.4691 7.2609 21.4904 7.15766 21.4904 7.05333C21.4904 6.94899 21.4691 6.84575 21.4278 6.74991C21.3866 6.65407 21.3262 6.56765 21.2505 6.49593C20.034 5.34756 18.0193 4.605 16.1178 4.605C14.7519 4.60622 13.4168 5.01108 12.2803 5.76872C10.9546 4.87973 9.36047 4.48048 7.77221 4.63964C6.18395 4.79879 4.70079 5.50642 3.57781 6.6408C2.90647 7.32616 2.37972 8.13946 2.02885 9.03238C1.67798 9.9253 1.51014 10.8796 1.5353 11.8387C1.57296 13.4575 1.93291 15.0525 2.59412 16.5306C3.25533 18.0087 4.20452 19.3401 5.38623 20.4472C6.09789 21.1195 7.04065 21.4929 8.01971 21.49H16.4315C16.9549 21.491 17.473 21.3845 17.9535 21.177C18.4341 20.9696 18.8669 20.6657 19.2252 20.2841C19.8889 19.5698 20.463 18.7773 20.9348 17.924C21.6083 16.6931 21.522 16.5012 21.4231 16.27Z" fill="var(--fill-0, #47BDEF)"/>
</g>
<defs>
<clipPath id="clip0_0_33">
<rect width="24.56" height="24.56" fill="white"/>
</clipPath>
</defs>
</svg>
