<svg preserveAspectRatio="none" width="100%" height="100%" overflow="visible" style="display: block;" viewBox="0 0 24 24" fill="none" xmlns="http://www.w3.org/2000/svg">
<g id="Frame">
<path id="Vector" d="M19.4119 7.5625C19.3425 7.49312 19.2722 7.42562 19.2019 7.35906L21.5306 5.03031C21.6003 4.96063 21.6556 4.8779 21.6933 4.78686C21.731 4.69581 21.7504 4.59823 21.7504 4.49968C21.7504 4.40114 21.731 4.30356 21.6933 4.21251C21.6556 4.12147 21.6003 4.03874 21.5306 3.96906C21.4609 3.89938 21.3782 3.8441 21.2872 3.80639C21.1961 3.76868 21.0986 3.74927 21 3.74927C20.9015 3.74927 20.8039 3.76868 20.7128 3.80639C20.6218 3.8441 20.5391 3.89938 20.4694 3.96906L18.0319 6.40656C16.2673 5.1644 14.1612 4.49921 12.0033 4.5024C9.8453 4.50559 7.74126 5.177 5.98032 6.42437L3.53063 3.96906C3.3899 3.82833 3.19903 3.74927 3 3.74927C2.80098 3.74927 2.61011 3.82833 2.46938 3.96906C2.32865 4.10979 2.24959 4.30066 2.24959 4.49968C2.24959 4.69871 2.32865 4.88958 2.46938 5.03031L4.81875 7.37968C3.76922 8.37407 2.93357 9.57211 2.36294 10.9005C1.7923 12.229 1.49867 13.6598 1.5 15.1056V17.2497C1.5 17.6475 1.65804 18.029 1.93934 18.3103C2.22065 18.5916 2.60218 18.7497 3 18.7497H21C21.3978 18.7497 21.7794 18.5916 22.0607 18.3103C22.342 18.029 22.5 17.6475 22.5 17.2497V14.9997C22.5039 13.6172 22.2328 12.2478 21.7027 10.971C21.1725 9.69426 20.3938 8.53562 19.4119 7.5625ZM8.625 14.9997C8.4025 14.9997 8.18499 14.9337 7.99999 14.8101C7.81498 14.6865 7.67079 14.5108 7.58564 14.3052C7.50049 14.0996 7.47821 13.8734 7.52162 13.6552C7.56503 13.437 7.67217 13.2365 7.82951 13.0792C7.98684 12.9219 8.1873 12.8147 8.40553 12.7713C8.62376 12.7279 8.84996 12.7502 9.05552 12.8353C9.26109 12.9205 9.43679 13.0647 9.56041 13.2497C9.68402 13.4347 9.75 13.6522 9.75 13.8747C9.75 14.1731 9.63148 14.4592 9.4205 14.6702C9.20952 14.8812 8.92337 14.9997 8.625 14.9997ZM15.375 14.9997C15.1525 14.9997 14.935 14.9337 14.75 14.8101C14.565 14.6865 14.4208 14.5108 14.3356 14.3052C14.2505 14.0996 14.2282 13.8734 14.2716 13.6552C14.315 13.437 14.4222 13.2365 14.5795 13.0792C14.7368 12.9219 14.9373 12.8147 15.1555 12.7713C15.3738 12.7279 15.6 12.7502 15.8055 12.8353C16.0111 12.9205 16.1868 13.0647 16.3104 13.2497C16.434 13.4347 16.5 13.6522 16.5 13.8747C16.5 14.1731 16.3815 14.4592 16.1705 14.6702C15.9595 14.8812 15.6734 14.9997 15.375 14.9997Z" fill="var(--fill-0, black)"/>
</g>
</svg>
