<svg preserveAspectRatio="none" width="100%" height="100%" overflow="visible" style="display: block;" viewBox="0 0 50.0957 33.6133" fill="none" xmlns="http://www.w3.org/2000/svg">
<g id="Group 1000004740">
<path id="Union" d="M35.9883 0C43.7796 0 50.0957 7.52466 50.0957 16.8066C50.0957 26.0886 43.7796 33.6133 35.9883 33.6133H14.1074C6.31627 33.6131 4.80207e-05 26.0885 0 16.8066C0 7.52476 6.31624 0.000159949 14.1074 0C18.5209 0 22.461 2.41465 25.0479 6.19531C27.6346 2.41471 31.5749 8.92128e-05 35.9883 0Z" fill="url(#paint0_radial_0_13)"/>
<g id="Group 1000004730">
<mask id="mask0_0_13" style="mask-type:alpha" maskUnits="userSpaceOnUse" x="14" y="9" width="9" height="7">
<path id="Subtract" d="M18.4266 9.75483C20.4147 9.75491 22.0261 11.3664 22.0262 13.3544C22.0262 14.1699 21.7547 14.9218 21.2977 15.5253C20.4376 15.168 19.4155 14.9609 18.3192 14.9609C17.2926 14.9609 16.3311 15.1423 15.5067 15.4589C15.0794 14.867 14.827 14.1403 14.827 13.3544C14.8272 11.3664 16.4386 9.75483 18.4266 9.75483Z" fill="var(--fill-0, white)"/>
</mask>
<g mask="url(#mask0_0_13)">
<circle id="Ellipse 6" cx="18.4173" cy="13.3576" r="3.59989" fill="var(--fill-0, white)"/>
<path id="Ellipse 7" d="M16.0216 12.0071C16.36 11.4209 16.9042 10.9812 17.5484 10.7734C18.1927 10.5657 18.8911 10.6046 19.5083 10.8826C20.1255 11.1607 20.6175 11.658 20.8887 12.2782C21.16 12.8984 21.1913 13.5973 20.9764 14.2392C20.7616 14.8811 20.3161 15.4204 19.7261 15.7525C19.1362 16.0845 18.444 16.1856 17.7838 16.0362C17.1236 15.8867 16.5424 15.4974 16.1529 14.9437C15.7635 14.3901 15.5935 13.7115 15.6761 13.0396L18.3866 13.3726L16.0216 12.0071Z" fill="var(--fill-0, #131313)"/>
</g>
</g>
<g id="Group 1000004731">
<mask id="mask1_0_13" style="mask-type:alpha" maskUnits="userSpaceOnUse" x="27" y="9" width="9" height="7">
<path id="Subtract_2" d="M31.5791 9.75483C33.5671 9.75488 35.1785 11.3664 35.1787 13.3544C35.1787 14.1699 34.9072 14.9218 34.4502 15.5253C33.59 15.168 32.5679 14.9609 31.4716 14.9609C30.445 14.9609 29.4835 15.1423 28.6591 15.4589C28.2318 14.867 27.9795 14.1403 27.9795 13.3544C27.9796 11.3664 29.591 9.75483 31.5791 9.75483Z" fill="var(--fill-0, white)"/>
</mask>
<g mask="url(#mask1_0_13)">
<circle id="Ellipse 6_2" cx="31.5793" cy="13.3576" r="3.59989" fill="var(--fill-0, white)"/>
<path id="Ellipse 7_2" d="M29.1836 12.0071C29.5221 11.4209 30.0662 10.9812 30.7104 10.7734C31.3547 10.5657 32.0532 10.6046 32.6704 10.8826C33.2875 11.1607 33.7795 11.658 34.0508 12.2782C34.322 12.8984 34.3533 13.5973 34.1385 14.2392C33.9236 14.8811 33.4781 15.4204 32.8882 15.7525C32.2983 16.0845 31.6061 16.1856 30.9458 16.0362C30.2856 15.8867 29.7044 15.4974 29.3149 14.9437C28.9255 14.3901 28.7556 13.7115 28.8381 13.0396L31.5487 13.3726L29.1836 12.0071Z" fill="var(--fill-0, #131313)"/>
</g>
</g>
<path id="Line 5" d="M19.9745 18.1757C19.9745 18.1757 23.0374 19.6815 25.115 19.644C27.1927 19.6064 29.9886 18.1757 29.9886 18.1757" stroke="var(--stroke-0, #25130D)" stroke-width="0.80113" stroke-linecap="round"/>
</g>
<defs>
<radialGradient id="paint0_radial_0_13" cx="0" cy="0" r="1" gradientUnits="userSpaceOnUse" gradientTransform="translate(25.0479 16.8066) rotate(90) scale(16.8066 25.0479)">
<stop stop-color="#00A6F6"/>
<stop offset="1" stop-color="#92DBF3"/>
</radialGradient>
</defs>
</svg>
